<svg xmlns="http://www.w3.org/2000/svg" width="27.604" height="24" viewBox="0 0 27.604 24">
  <g id="Group_35" data-name="Group 35" transform="translate(-2415 594)">
    <path id="Path_36" data-name="Path 36" d="M109.874,52.545h-19.5l-.409-2.374a1.2,1.2,0,0,0-1.182-.991H85.546a1.2,1.2,0,0,0,0,2.4h2.219l.773,4.393L89.712,64.5h0a2.073,2.073,0,0,0,2.055,1.819h16.8A2.074,2.074,0,0,0,110.62,64.5l1.31-9.594a2.073,2.073,0,0,0-2.055-2.365Z" transform="translate(2330.654 -643.18)"/>
    <path id="Path_37" data-name="Path 37" d="M232.316,413a2.537,2.537,0,1,0,1.8.74A2.547,2.547,0,0,0,232.316,413Z" transform="translate(2192.787 -988.093)"/>
    <path id="Path_38" data-name="Path 38" d="M447,412.992a2.546,2.546,0,1,0,1.827.726,2.546,2.546,0,0,0-1.827-.726Z" transform="translate(1989.221 -988.085)"/>
  </g>
</svg>
