<svg xmlns="http://www.w3.org/2000/svg" width="14.604" height="12.697" viewBox="0 0 14.604 12.697">
  <g id="Group_52" data-name="Group 52" transform="translate(-2415 594)">
    <path id="Path_36" data-name="Path 36" d="M97.852,50.96H87.536L87.32,49.7a.635.635,0,0,0-.625-.524H84.981a.635.635,0,0,0,0,1.27h1.174l.409,2.324.621,4.513h0a1.1,1.1,0,0,0,1.087.962h8.887a1.1,1.1,0,0,0,1.087-.962l.693-5.076a1.1,1.1,0,0,0-1.087-1.251Z" transform="translate(2330.654 -643.18)" fill="#fff"/>
    <path id="Path_37" data-name="Path 37" d="M231.117,413a1.342,1.342,0,1,0,.952.391A1.347,1.347,0,0,0,231.117,413Z" transform="translate(2189.228 -996.997)" fill="#fff"/>
    <path id="Path_38" data-name="Path 38" d="M445.818,412.991a1.347,1.347,0,1,0,.966.384A1.347,1.347,0,0,0,445.818,412.991Z" transform="translate(1980.407 -996.988)" fill="#fff"/>
  </g>
</svg>
